<svg width="297" height="65" viewBox="0 0 297 65" fill="none" xmlns="http://www.w3.org/2000/svg">
<g clip-path="url(#clip0_1_2)">
<path fill-rule="evenodd" clip-rule="evenodd" d="M15.0263 43.2632C12.9679 43.2632 11.2402 43.9359 9.84313 45.2788C8.44532 46.6229 7.74641 48.4573 7.74641 50.781C7.74641 53.1058 8.45419 54.949 9.87183 56.3107C11.2888 57.6727 13.0259 58.3535 15.0844 58.3535C16.9087 58.3535 18.365 57.9093 19.4525 57.0188C20.539 56.1295 21.2768 55.0672 21.6653 53.832L28.4795 55.9565C27.7809 58.4271 26.2666 60.5516 23.9368 62.3305C21.607 64.1103 18.6565 65 15.0844 65C10.813 65 7.23101 63.6474 4.33937 60.9416C1.4467 58.2363 0 54.8492 0 50.781C0 46.6775 1.42721 43.2821 4.28093 40.5937C7.135 37.9066 10.6582 36.5625 14.8517 36.5625C18.5006 36.5625 21.4908 37.4433 23.8206 39.2048C26.15 40.9667 27.6442 43.0999 28.3045 45.606L21.3746 47.785C20.4426 44.7706 18.3257 43.2632 15.0263 43.2632Z" fill="#242C5B"/>
<path fill-rule="evenodd" clip-rule="evenodd" d="M41.4185 59.5963C43.1523 59.5963 44.5821 59.1142 45.7083 58.1498C46.8337 57.1864 47.3965 55.5941 47.3965 53.3737V52.1729L41.2525 53.1009C39.0008 53.4286 37.8758 54.5565 37.8758 56.4852C37.8758 57.3582 38.1887 58.0954 38.8169 58.6956C39.4438 59.296 40.3114 59.5963 41.4185 59.5963ZM30.5137 56.9217C30.5137 54.6293 31.2696 52.7924 32.7833 51.4091C34.296 50.0266 36.2513 49.1536 38.6509 48.789L45.3484 47.8067C46.713 47.6247 47.3965 46.9877 47.3965 45.8961C47.3965 44.8782 46.9992 44.0401 46.2063 43.3855C45.4125 42.7306 44.2774 42.4028 42.8022 42.4028C41.2525 42.4028 40.0252 42.8218 39.1212 43.6585C38.2166 44.496 37.7099 45.5329 37.5992 46.7695L31.0672 45.4049C31.3252 43.0767 32.4873 41.0205 34.5545 39.237C36.6207 37.4548 39.3513 36.5625 42.7471 36.5625C46.806 36.5625 49.7951 37.518 51.714 39.4282C53.6321 41.3386 54.5923 43.7862 54.5923 46.7695V59.9783C54.5923 61.5798 54.7031 62.999 54.9247 64.2358H48.1716C47.9867 63.4357 47.8947 62.362 47.8947 61.0155C46.1599 63.672 43.4847 65 39.8686 65C37.0638 65 34.8037 64.1999 33.0876 62.5985C31.372 60.9972 30.5137 59.1049 30.5137 56.9217Z" fill="#242C5B"/>
<path fill-rule="evenodd" clip-rule="evenodd" d="M80.0749 64.2681C79.9194 63.5172 79.8417 62.5223 79.8417 61.2834C79.1039 62.5223 78.0068 63.4516 76.5507 64.0711C75.0946 64.6904 73.551 65 71.9202 65C68.5417 65 65.8809 63.9584 63.94 61.8749C61.9977 59.7911 61.0274 57.1921 61.0274 54.0755V36.5625H68.7744V52.5551C68.7744 54.2078 69.2205 55.5494 70.1144 56.5813C71.0072 57.6144 72.3077 58.1299 74.0169 58.1299C75.686 58.1299 77.0068 57.6329 77.978 56.638C78.9479 55.6437 79.4341 54.3205 79.4341 52.6679V36.5625H87.1813V59.2564C87.1813 61.021 87.2777 62.6915 87.4726 64.2681H80.0749Z" fill="#242C5B"/>
<path fill-rule="evenodd" clip-rule="evenodd" d="M91.5411 56.7194L97.9829 55.3575C98.058 56.5201 98.5385 57.4917 99.4238 58.2721C100.308 59.0535 101.523 59.4431 103.069 59.4431C104.236 59.4431 105.14 59.1892 105.781 58.6806C106.421 58.1728 106.741 57.5366 106.741 56.7736C106.741 55.4308 105.743 54.5592 103.746 54.159L100.074 53.3418C97.4744 52.7971 95.525 51.8162 94.2251 50.4C92.9256 48.9834 92.2757 47.2946 92.2757 45.3332C92.2757 42.9008 93.2647 40.8304 95.2424 39.1229C97.2199 37.416 99.6966 36.5625 102.673 36.5625C104.556 36.5625 106.213 36.8264 107.646 37.3525C109.077 37.879 110.188 38.5509 110.98 39.3681C111.771 40.1852 112.373 41.0115 112.788 41.8466C113.202 42.6827 113.466 43.5002 113.579 44.2983L107.307 45.6603C107.156 44.7161 106.713 43.8813 105.979 43.1541C105.244 42.4281 104.161 42.0647 102.729 42.0647C101.749 42.0647 100.912 42.3195 100.215 42.8275C99.5176 43.3361 99.1695 43.9713 99.1695 44.7342C99.1695 46.0417 100.017 46.8408 101.713 47.1311L105.668 47.9483C108.342 48.493 110.386 49.4928 111.799 50.9448C113.212 52.3977 113.918 54.1411 113.918 56.1746C113.918 58.5717 112.976 60.6415 111.093 62.3852C109.208 64.1286 106.552 65 103.125 65C101.166 65 99.4142 64.7183 97.8698 64.1556C96.3246 63.593 95.1293 62.867 94.2816 61.9763C93.4342 61.0874 92.7928 60.1977 92.3605 59.307C91.927 58.4175 91.6542 57.5555 91.5411 56.7194Z" fill="#242C5B"/>
<path fill-rule="evenodd" clip-rule="evenodd" d="M128.891 59.5963C130.625 59.5963 132.055 59.1142 133.181 58.1498C134.306 57.1864 134.869 55.5941 134.869 53.3737V52.1729L128.725 53.1009C126.473 53.4286 125.348 54.5565 125.348 56.4852C125.348 57.3582 125.661 58.0954 126.289 58.6956C126.916 59.296 127.784 59.5963 128.891 59.5963ZM117.986 56.9217C117.986 54.6293 118.742 52.7924 120.256 51.4091C121.769 50.0266 123.724 49.1536 126.123 48.789L132.821 47.8067C134.186 47.6247 134.869 46.9877 134.869 45.8961C134.869 44.8782 134.472 44.0401 133.679 43.3855C132.885 42.7306 131.75 42.4028 130.275 42.4028C128.725 42.4028 127.498 42.8218 126.594 43.6585C125.689 44.496 125.182 45.5329 125.072 46.7695L118.54 45.4049C118.798 43.0767 119.96 41.0205 122.027 39.237C124.093 37.4548 126.824 36.5625 130.22 36.5625C134.279 36.5625 137.268 37.518 139.187 39.4282C141.105 41.3386 142.065 43.7862 142.065 46.7695V59.9783C142.065 61.5798 142.176 62.999 142.397 64.2358H135.644C135.459 63.4357 135.367 62.362 135.367 61.0155C133.632 63.672 130.957 65 127.341 65C124.536 65 122.276 64.1999 120.56 62.5985C118.845 60.9972 117.986 59.1049 117.986 56.9217Z" fill="#242C5B"/>
<path fill-rule="evenodd" clip-rule="evenodd" d="M176.979 65H150.534V24.375H158.573V57.4364H176.979V65Z" fill="#242C5B"/>
<path fill-rule="evenodd" clip-rule="evenodd" d="M186.882 47.7305H199.801C199.722 46.2416 199.145 44.9885 198.069 43.9715C196.992 42.955 195.416 42.446 193.342 42.446C191.463 42.446 189.936 42.9908 188.761 44.0806C187.587 45.1701 186.96 46.3875 186.882 47.7305ZM200.564 54.7036L207.082 56.5015C206.299 58.9712 204.763 61.0051 202.473 62.6029C200.183 64.2007 197.335 65 193.929 65C189.779 65 186.256 63.7018 183.359 61.1047C180.461 58.5085 179.014 55.0306 179.014 50.6722C179.014 46.5319 180.423 43.1458 183.242 40.5123C186.06 37.8794 189.387 36.5625 193.224 36.5625C197.687 36.5625 201.181 37.7975 203.705 40.2671C206.232 42.7369 207.493 46.1327 207.493 50.4542C207.493 50.7455 207.483 51.0721 207.465 51.4351C207.444 51.7981 207.434 52.0888 207.434 52.3065L207.375 52.6878H186.706C186.784 54.4312 187.528 55.8842 188.938 57.0462C190.347 58.2089 192.029 58.7895 193.988 58.7895C197.314 58.7895 199.507 57.4275 200.564 54.7036Z" fill="#242C5B"/>
<path fill-rule="evenodd" clip-rule="evenodd" d="M219.396 49.0638V65H211.562V37.2948H219.16V40.7294C219.983 39.3782 221.161 38.3459 222.693 37.6326C224.225 36.9198 225.834 36.5625 227.522 36.5625C230.94 36.5625 233.54 37.5858 235.328 39.6313C237.114 41.6778 238.007 44.3148 238.007 47.5434V65H230.173V48.8384C230.173 47.1868 229.732 45.854 228.849 44.8402C227.966 43.8269 226.619 43.3199 224.815 43.3199C223.165 43.3199 221.849 43.8644 220.868 44.953C219.886 46.0421 219.396 47.4122 219.396 49.0638Z" fill="#242C5B"/>
<path fill-rule="evenodd" clip-rule="evenodd" d="M244.11 56.7194L250.552 55.3575C250.627 56.5201 251.107 57.4917 251.992 58.2721C252.877 59.0535 254.092 59.4431 255.638 59.4431C256.805 59.4431 257.709 59.1892 258.349 58.6806C258.99 58.1728 259.309 57.5366 259.309 56.7736C259.309 55.4308 258.311 54.5592 256.315 54.159L252.641 53.3418C250.043 52.7971 248.093 51.8162 246.793 50.4C245.495 48.9834 244.844 47.2946 244.844 45.3332C244.844 42.9008 245.833 40.8304 247.81 39.1229C249.789 37.416 252.265 36.5625 255.241 36.5625C257.125 36.5625 258.783 36.8264 260.215 37.3525C261.645 37.879 262.758 38.5509 263.549 39.3681C264.338 40.1852 264.942 41.0115 265.355 41.8466C265.77 42.6827 266.035 43.5002 266.147 44.2983L259.875 45.6603C259.724 44.7161 259.281 43.8813 258.547 43.1541C257.812 42.4281 256.728 42.0647 255.298 42.0647C254.317 42.0647 253.479 42.3195 252.784 42.8275C252.086 43.3361 251.738 43.9713 251.738 44.7342C251.738 46.0417 252.586 46.8408 254.281 47.1311L258.235 47.9483C260.91 48.493 262.955 49.4928 264.367 50.9448C265.78 52.3977 266.486 54.1411 266.486 56.1746C266.486 58.5717 265.544 60.6415 263.661 62.3852C261.777 64.1286 259.12 65 255.693 65C253.734 65 251.982 64.7183 250.438 64.1556C248.894 63.593 247.698 62.867 246.85 61.9763C246.003 61.0874 245.361 60.1977 244.929 59.307C244.496 58.4175 244.224 57.5555 244.11 56.7194Z" fill="#242C5B"/>
<mask id="mask0_1_2" style="mask-type:luminance" maskUnits="userSpaceOnUse" x="260" y="0" width="37" height="43">
<path fill-rule="evenodd" clip-rule="evenodd" d="M260.384 0H297V42.6562H260.384V0Z" fill="white"/>
</mask>
<g mask="url(#mask0_1_2)">
<path fill-rule="evenodd" clip-rule="evenodd" d="M266.019 23.3279C265.866 24.1016 265.18 24.663 264.389 24.663C264.281 24.663 264.171 24.6525 264.064 24.6311C263.626 24.5462 263.248 24.2978 263 23.931C262.752 23.5643 262.662 23.124 262.75 22.6907C262.902 21.9164 263.588 21.3551 264.379 21.3551C264.487 21.3551 264.597 21.3657 264.704 21.3868C265.142 21.4721 265.518 21.7208 265.768 22.087C266.017 22.4538 266.104 22.8946 266.019 23.3279ZM281.55 11.7921C281.941 11.8678 282.329 11.9046 282.712 11.9046C282.868 11.9046 283.025 11.8965 283.179 11.8844L284.931 18.795L282.553 19.4007L285.96 22.8528L287.759 29.9506C286.623 30.4247 285.633 31.2022 284.909 32.2065L277.829 28.6512L275.169 24.5753L274.048 26.7512L268.287 23.858C268.295 23.8298 268.303 23.8026 268.309 23.7738C268.496 22.8256 268.325 21.8904 267.892 21.1041L271.468 17.7752L273.143 19.5476L274.562 14.8937L279.08 10.6869C279.786 11.2204 280.62 11.6108 281.55 11.7921ZM291.62 29.5551C291.186 29.4706 290.753 29.4302 290.328 29.43C290.116 29.43 289.905 29.442 289.697 29.4617L287.897 22.3637L289.209 17.7051L286.868 18.3015L285.118 11.3981C286.851 10.6402 288.198 9.08405 288.593 7.09924C289.229 3.87404 287.112 0.746206 283.861 0.112922C283.472 0.0368148 283.084 0 282.699 0V2.31473C282.937 2.31473 283.177 2.33809 283.411 2.38375C285.395 2.77032 286.693 4.68575 286.302 6.65322C285.966 8.35484 284.455 9.5899 282.712 9.5899C282.476 9.5899 282.236 9.56654 282 9.52088C280.016 9.13431 278.72 7.21888 279.109 5.25141C279.447 3.54979 280.956 2.31473 282.699 2.31473V0C279.89 0 277.382 1.96747 276.82 4.80539C276.503 6.40683 276.867 7.98314 277.709 9.24335L273.159 13.4799L268.441 14.5741L270.099 16.3281L266.521 19.6587C266.114 19.4032 265.656 19.2131 265.154 19.1154C264.894 19.0647 264.635 19.0403 264.379 19.0403C262.507 19.0403 260.833 20.3521 260.459 22.2442C260.034 24.3947 261.446 26.4804 263.614 26.9027C263.874 26.9537 264.133 26.9778 264.389 26.9778C265.555 26.9778 266.641 26.469 267.388 25.6295L273.138 28.5179L272.042 30.6475L276.886 30.3999L284.009 33.9785C283.926 34.2353 283.851 34.4969 283.796 34.7687C283.086 38.3518 285.44 41.8273 289.05 42.5313C289.484 42.6156 289.915 42.6562 290.342 42.6562C293.463 42.6562 296.25 40.4704 296.874 37.3175C297.584 33.7344 295.23 30.2589 291.62 29.5551Z" fill="#3796F6"/>
</g>
</g>
<defs>
<clipPath id="clip0_1_2">
<rect width="297" height="65" fill="white"/>
</clipPath>
</defs>
</svg>
