<?xml version="1.0" standalone="no"?>
<!DOCTYPE svg PUBLIC "-//W3C//DTD SVG 20010904//EN"
 "http://www.w3.org/TR/2001/REC-SVG-20010904/DTD/svg10.dtd">
<svg version="1.0" xmlns="http://www.w3.org/2000/svg"
 width="2048.000000pt" height="2048.000000pt" viewBox="0 0 2048.000000 2048.000000"
 preserveAspectRatio="xMidYMid meet">
<metadata>
Created by potrace 1.14, written by Peter Selinger 2001-2017
</metadata>
<g transform="translate(0.000000,2048.000000) scale(0.100000,-0.100000)"
fill="#000000" stroke="none">
<path d="M10067 17264 c-1 -1 -103 -5 -226 -9 -123 -4 -236 -9 -250 -10 -14
-2 -60 -7 -101 -10 -159 -15 -354 -37 -430 -51 -83 -15 -239 -44 -260 -48 -14
-3 -41 -7 -60 -10 -19 -3 -60 -12 -90 -20 -80 -23 -223 -58 -237 -59 -7 0 -13
-4 -13 -9 0 -4 -3 -7 -7 -6 -11 4 -121 -21 -158 -35 -16 -6 -34 -12 -40 -13
-5 -1 -59 -14 -120 -28 -60 -15 -119 -28 -130 -30 -43 -9 -82 -19 -125 -33
-25 -8 -49 -16 -55 -17 -5 -1 -37 -12 -70 -25 -149 -57 -183 -69 -225 -82 -25
-7 -87 -32 -138 -56 -51 -24 -98 -44 -105 -46 -6 -1 -14 -5 -17 -9 -3 -3 -12
-8 -20 -10 -8 -2 -20 -7 -26 -13 -7 -5 -27 -21 -45 -35 -18 -14 -38 -30 -45
-37 -6 -7 -38 -25 -70 -40 -55 -26 -78 -40 -109 -70 -8 -7 -19 -13 -25 -13 -6
0 -8 -4 -5 -10 3 -5 2 -10 -3 -10 -5 0 -30 -20 -56 -45 -27 -25 -51 -45 -55
-45 -8 0 -38 -30 -83 -81 -13 -15 -54 -61 -93 -104 -79 -86 -135 -171 -196
-292 -23 -46 -46 -83 -51 -83 -5 0 -7 -4 -4 -9 4 -5 2 -11 -3 -13 -6 -1 -12
-25 -16 -52 -3 -27 -9 -54 -14 -60 -13 -17 -46 -193 -43 -226 1 -14 -44 -80
-55 -80 -7 0 -13 -4 -13 -9 0 -10 -29 -7 -95 11 -103 27 -225 27 -295 0 -14
-5 -29 -11 -35 -12 -45 -12 -134 -56 -180 -90 -22 -16 -64 -46 -94 -66 -61
-40 -141 -120 -162 -162 -22 -43 -91 -122 -106 -122 -8 0 -12 -4 -8 -9 3 -6
-3 -15 -14 -20 -11 -6 -22 -25 -26 -43 -4 -18 -14 -41 -23 -50 -8 -10 -12 -18
-9 -18 3 0 -10 -29 -28 -65 -19 -36 -32 -65 -28 -65 3 0 -2 -11 -11 -25 -9
-14 -13 -25 -9 -25 4 0 -2 -7 -13 -16 -10 -8 -13 -12 -5 -8 10 5 11 1 6 -17
-4 -13 -11 -28 -16 -33 -5 -6 -9 -18 -9 -29 0 -10 -4 -16 -8 -13 -4 2 -9 -5
-9 -16 -1 -12 -7 -24 -14 -28 -8 -5 -8 -9 0 -14 6 -4 7 -13 2 -24 -39 -77 -73
-171 -91 -247 -12 -49 -26 -103 -31 -120 -6 -16 -12 -64 -15 -105 -3 -41 -8
-82 -11 -90 -11 -27 -13 -44 -19 -150 -8 -138 -8 -703 0 -760 4 -25 9 -58 11
-75 4 -30 7 -49 25 -155 21 -127 24 -140 38 -195 6 -22 13 -53 16 -70 7 -47
71 -269 111 -390 20 -60 39 -121 41 -135 3 -14 12 -52 21 -85 8 -33 17 -75 19
-94 2 -19 6 -49 9 -68 3 -19 8 -55 11 -81 2 -26 7 -58 10 -72 2 -14 6 -47 9
-75 3 -27 7 -68 10 -90 2 -22 7 -71 10 -110 3 -38 7 -88 10 -110 2 -22 7 -78
10 -125 4 -47 8 -107 11 -135 3 -27 7 -79 9 -115 2 -36 6 -74 9 -85 2 -11 7
-56 11 -100 5 -66 15 -129 30 -200 1 -5 5 -30 9 -55 10 -62 12 -73 18 -90 3
-8 11 -33 17 -55 17 -63 78 -257 130 -412 33 -100 43 -143 34 -143 -7 0 -13 5
-13 12 0 6 -3 9 -6 6 -3 -4 -38 10 -77 29 -66 33 -76 35 -137 29 -62 -5 -66
-8 -112 -58 -27 -28 -48 -57 -48 -65 0 -7 -4 -13 -9 -13 -5 0 -13 -9 -16 -21
-4 -11 -22 -47 -41 -80 -57 -102 -65 -148 -67 -384 -2 -138 2 -215 17 -325 2
-14 7 -52 10 -85 4 -33 9 -67 11 -75 2 -8 7 -37 11 -65 3 -27 8 -53 10 -56 2
-3 6 -21 9 -40 3 -19 15 -72 26 -119 30 -133 31 -134 35 -160 2 -14 7 -36 10
-50 4 -14 8 -34 9 -45 4 -27 30 -154 50 -240 10 -38 18 -79 19 -90 2 -11 6
-33 10 -50 3 -16 8 -40 10 -52 l5 -22 -442 1 c-387 1 -447 -1 -479 -15 -21 -9
-38 -13 -38 -9 0 4 -4 2 -8 -3 -4 -6 -26 -23 -48 -38 -94 -63 -149 -141 -194
-272 -19 -55 -20 -75 -15 -245 3 -102 8 -205 10 -230 6 -66 21 -316 30 -485 2
-55 7 -149 10 -208 3 -60 8 -157 10 -215 17 -468 22 -582 30 -747 8 -160 16
-295 21 -340 2 -23 6 -88 8 -144 3 -56 8 -126 10 -154 5 -49 12 -176 22 -397
5 -134 13 -289 19 -400 6 -125 15 -300 20 -426 4 -97 11 -204 20 -329 15 -203
26 -396 30 -510 2 -49 6 -160 10 -245 3 -85 8 -202 10 -260 2 -58 7 -184 11
-280 10 -262 10 -259 -18 -320 -15 -31 -30 -69 -33 -85 -4 -17 -16 -59 -27
-95 -25 -79 -32 -108 -52 -185 -22 -91 -74 -354 -81 -410 -4 -27 -8 -57 -10
-65 -2 -8 -7 -35 -10 -60 -3 -25 -10 -70 -15 -100 -23 -141 -41 -273 -37 -276
2 -2 2800 -3 6218 -2 l6215 3 -23 135 c-13 74 -25 144 -27 155 -2 11 -6 34 -9
50 -4 17 -9 48 -12 70 -2 22 -9 67 -15 100 -6 33 -13 73 -15 88 -2 15 -9 54
-15 85 -6 31 -13 71 -15 87 -3 17 -7 41 -10 55 -3 14 -7 34 -9 45 -2 11 -12
43 -22 70 -16 43 -19 82 -18 265 0 192 9 464 18 560 10 99 22 282 31 490 5 99
8 171 19 400 3 52 8 181 11 285 12 366 21 576 30 675 2 25 7 92 10 150 3 58 8
134 10 170 2 36 7 112 10 170 3 58 8 130 10 160 2 30 7 123 10 205 3 83 8 186
10 230 3 44 7 136 10 205 3 69 7 148 9 175 2 28 7 113 11 190 4 77 8 169 11
205 2 36 6 99 9 140 3 41 7 93 9 115 6 56 20 353 31 640 1 44 6 157 11 250 4
94 8 267 9 385 0 192 -2 220 -20 260 -48 111 -179 238 -273 266 -45 12 -127
16 -472 17 -230 1 -422 5 -426 10 -4 4 -3 7 3 7 17 0 45 87 67 215 3 17 8 41
11 55 3 14 8 34 10 45 3 11 14 63 25 115 11 52 25 115 30 140 11 53 15 69 30
135 14 61 16 69 25 125 8 47 12 69 20 110 11 56 14 77 19 110 3 19 8 46 10 60
9 47 19 245 18 370 -1 351 -132 584 -335 595 -37 2 -61 -3 -91 -20 -23 -12
-60 -33 -83 -45 -24 -13 -45 -21 -49 -17 -7 7 27 67 38 67 4 0 7 3 6 8 -2 9
19 89 31 117 19 43 131 404 147 470 1 6 7 30 13 55 7 25 13 56 16 70 5 35 15
91 20 120 4 25 16 131 20 185 2 17 6 68 9 115 4 47 9 110 11 140 5 68 14 222
20 355 8 163 22 303 41 395 6 30 63 208 99 310 48 133 105 320 98 320 -3 0 -1
6 5 13 5 6 20 57 32 112 30 137 29 132 35 189 3 28 8 62 10 76 5 32 17 125 21
170 6 54 5 382 -1 410 -3 14 -7 45 -10 70 -11 111 -17 158 -26 200 -5 25 -12
63 -15 85 -11 81 -13 91 -19 131 -6 38 -4 43 31 70 92 72 334 327 334 354 0 8
16 35 35 59 19 24 35 50 35 57 0 7 3 14 8 16 10 5 42 76 42 96 0 9 10 42 21
72 12 30 23 69 26 85 3 17 8 35 13 40 4 6 11 28 15 50 10 46 12 54 15 58 1 1
3 13 5 27 2 14 7 48 11 75 15 104 8 381 -12 447 -3 9 -13 16 -24 15 -10 -1
-17 -4 -14 -8 2 -4 -5 -9 -15 -12 -21 -5 -80 -121 -112 -222 -15 -47 -33 -81
-57 -104 -18 -19 -49 -59 -68 -88 -40 -63 -116 -115 -172 -120 -20 -1 -47 -8
-59 -14 -15 -8 -47 -10 -100 -5 -43 5 -95 7 -115 7 -20 -1 -63 10 -95 24 -32
15 -68 24 -80 22 -24 -4 -63 32 -63 58 0 9 -6 12 -16 8 -13 -5 -13 -7 -2 -14
9 -6 4 -9 -14 -9 -23 0 -36 11 -25 23 5 6 -28 35 -35 30 -5 -2 -8 1 -8 6 0 6
-18 18 -40 27 -42 17 -120 96 -120 121 0 8 -98 112 -217 232 -300 301 -423
428 -458 476 -49 68 -77 98 -135 144 -30 25 -74 63 -96 85 -49 48 -83 79 -142
125 -23 18 -59 50 -80 70 -20 21 -54 48 -75 60 -21 13 -74 51 -118 85 -148
115 -286 209 -374 254 -27 14 -52 29 -55 32 -22 28 -321 190 -351 190 -8 0
-32 9 -53 21 -22 11 -48 23 -59 25 -11 2 -24 9 -27 15 -4 6 -10 10 -14 10 -3
-1 -27 10 -54 23 -49 25 -233 89 -289 101 -18 4 -33 10 -33 14 0 3 -10 7 -23
9 -13 1 -43 9 -67 17 -37 13 -149 46 -210 60 -8 3 -40 11 -70 20 -30 8 -71 18
-90 21 -19 3 -42 7 -50 10 -19 7 -60 14 -175 30 -31 4 -72 11 -115 18 -14 3
-50 7 -80 10 -57 6 -117 13 -185 22 -21 3 -69 7 -105 10 -36 2 -87 7 -115 10
-95 11 -120 14 -185 18 -36 3 -76 8 -90 11 -14 3 -64 7 -112 10 -48 2 -100 7
-115 9 -45 7 -441 24 -446 20z"/>
</g>
</svg>
